<?xml version="1.0" encoding="UTF-8"?>
<svg id="Layer_1" data-name="Layer 1" xmlns="http://www.w3.org/2000/svg" viewBox="0 0 462.92 236.31">
  <defs>
    <style>
      .cls-1 {
        fill: #000;
      }

      .cls-1, .cls-2, .cls-3 {
        stroke-width: 0px;
      }

      .cls-2 {
        fill: #b12c27;
      }

      .cls-3 {
        fill: #fff;
      }
    </style>
  </defs>
  <g id="White">
    <path class="cls-3" d="M126.5,236.31c-4.08,0-7.95-2.53-10.1-6.61-.59-1.12-1.11-2.25-1.62-3.34-.54.26-1.14.4-1.75.4-.02,0-.04,0-.07,0-10.29-.17-20.48-1.63-30.29-4.33-1.23-.34-3.54-1.16-5.16-1.78-3.35-1.28-5.19-1.98-5.88-4.1-.38-1.16-.2-2.46.47-3.47-2.6-1.16-5.11-2.6-7.51-4.32-1.49-1.05-2.62-2.7-2.97-4.38-.65-2.94,2.1-5.55,4.36-6.1,10.45-2.57,18.38-9.58,25.6-16.58-1.08-.2-2.18-.36-3.34-.52-1.54-.22-3.14-.45-4.76-.79-2.62-.57-4.58-2.06-5.52-4.19-.9-2.02-.72-4.41.49-6.53,3.64-6.38,6.68-11.12,9.84-15.39.06-.08.12-.15.18-.22-2.69-1.45-4.61-3.71-6.1-5.79l-.19-.27c-1.77,3.08-3.57,6.24-5.2,9.37-8.53,16.43-14.37,30.29-18.37,43.63-.45,1.51-.81,3.07-1.19,4.71-.44,1.89-.89,3.84-1.5,5.8-1.69,5.37-5.66,9.43-11.47,11.75-1.98.79-3.99,1.19-5.99,1.19-5.29,0-9.94-2.8-12.75-7.67-5.19-9.03-8.09-18.26-8.61-27.42-.23-4.14.46-8.11,2.07-11.9-.6-.31-1.12-.76-1.5-1.34C6.11,158.84,0,138.87,0,118.36c0-28.23,11.45-54.96,32.24-75.28.77-.75,1.77-1.14,2.8-1.14.23,0,.46.02.69.06.35-1.61.79-3.2,1.31-4.79.43-1.32,1.04-2.41,1.68-3.57.27-.48.55-.99.84-1.55.63-1.24,1.86-2.06,3.25-2.17.11,0,.21-.01.32-.01,1.24,0,2.41.57,3.17,1.56.14-.14.3-.26.46-.38,11.07-7.71,23.39-13.43,36.6-17,.35-.09.7-.14,1.04-.14,1.39,0,2.71.73,3.44,1.96,1.65-.73,3.43-1.22,5.28-1.42,6.21-.67,12.99-2.11,20.72-4.4,5.27-1.56,10.57-3.58,15.71-5.53,2.48-.94,4.96-1.89,7.46-2.79.35-.13.7-.26,1.05-.4,1.65-.64,3.52-1.37,5.66-1.37s3.93.67,5.55,2c1.1-.48,2.24-.71,3.42-.71,2.07,0,4.09.73,6.01,2.18,4.18,3.18,8.59,6.6,12.58,10.5,3.51,3.44,5.11,7.82,4.72,12.71.48.09.94.26,1.36.52,6.18,3.77,13.6,10.92,18.74,16.26,6.78,7.05,9.26,10.17,10.19,11.71.09,0,.18,0,.26,0,.48,0,.96.08,1.42.26l1,.38c1.79.68,2.85,2.54,2.52,4.43-.08.44-.14.87-.21,1.31-.17,1.05-.34,2.14-.61,3.27-.34,1.4-.92,3.79-1.05,5.02.73.26,1.95.58,3.06.87.67.18,1.4.37,2.2.59,3.29.9,6.75,1.62,10.1,2.31,2.96.61,6.01,1.25,9.02,2.02,2.56.66,5.12,2.71,6.36,5.1.12.24.24.47.36.71-.01-2.64.21-5.14.44-7.26.34-3.13,2.33-5.81,3.8-7.56,1.52-1.81,3.55-2.81,5.71-2.81,2.03,0,4.01.86,5.72,2.48,1.51,1.44,2.72,2.83,3.69,4.25,4.63,6.79,11.31,11.88,17.77,16.81,4.01,3.05,8.87,5.09,15.29,6.43,5.45,1.13,7.73,3.85,8.67,5.94.9,1.98,1.46,5.26-1,9.63-4.11,7.32-8.57,12.71-13.82,16.62,3.87-1.44,7.72-3.08,11.48-4.69l.51-.22c2.31-.99,4.02-1.41,5.7-1.41,2.73,0,5.16,1.19,7.45,3.63,2.55,2.73,4.6,5.78,6.58,8.74,0,0,.56.84.64.95.76-.31,1.61-.47,2.54-.47.78,0,1.58.11,2.33.33,1.29.37,2.58.56,3.81.56,3.41,0,6.76-1.43,10.24-4.37,14.47-12.24,25.07-27.43,31.52-45.13.09-.25.18-.5.26-.75.88-2.55,2.53-7.3,8.5-7.51.22,0,.45-.01.67-.01,6,0,10.44,3,12.49,8.45,1.98,5.26,1.8,10.97-.55,17.45-.4,1.11-.42,1.17.85,2.45,14.02,14.07,31.66,23.52,47.1,31.26,2.93,1.47,6.17,2.16,10.18,2.16,1.67,0,3.53-.12,5.66-.37,1.05-.12,1.75-.17,2.37-.17,2.07,0,3.62.69,4.63,2.06,1.64,2.23.82,4.83.17,6.93-2.81,8.97-7.86,16.56-15.02,22.56-3.54,2.97-7.59,4.54-11.72,4.54-2.91,0-5.81-.79-8.51-2.29-.16,1.13-.38,2.22-.6,3.26-.26,1.25-.5,2.42-.59,3.52-.49,6.06-.79,12.27-1.08,18.28-.1,2.03-.19,4.06-.3,6.09-.05.88-.05,1.78-.05,2.74,0,1.8-.01,3.67-.3,5.61-.91,6.07-5.24,9.99-11.03,9.99-.98,0-2-.12-3.01-.35-1.89-.42-3.71-.98-5.48-1.52-2.75-.84-5.34-1.63-7.83-1.83l-.28-.02c-4.88-.39-9.92-.8-14.8-.8-6.47,0-11.77.7-16.65,2.21-.77.24-2.3.64-3.87.64-1.61,0-2.96-.42-4.02-1.25,0,0,0,0-.01-.01-.2.16-.45.39-.75.68-1.29,1.21-2.74,1.97-4.02,2.64-.44.23-.88.46-1.3.71-.62.37-1.33.56-2.04.56-.49,0-.98-.09-1.45-.27-1.14-.44-2.02-1.39-2.38-2.56-.16-.52-.34-1.04-.52-1.56-.47-1.34-.99-2.85-1.23-4.51-.41-2.85-.75-5.73-1.08-8.52-.52-4.33-1.05-8.8-1.83-13.1-.54-2.96-1.34-5.88-2.19-8.97-.73-2.67-1.49-5.43-2.07-8.24-.25-1.24-.21-2.45-.04-3.58-1.76.65-3.58,1.25-5.52,1.62-.12.02-.22.04-.3.06,0,0,0,.02,0,.03-.24,1.33-.48,2.67-.71,4-.9,5.12-1.83,10.41-3.11,15.6-3.57,14.43-9.86,25.24-19.23,33.04-2.58,2.15-5.31,3.24-8.12,3.24-1.55,0-3.1-.33-4.6-.99-2.86-1.25-6.26-4.16-6.16-10.92.1-7.17-.62-14.17-2.16-20.87-3.04,9.27-7.81,17.35-14.26,24.11-4.22,4.43-9.5,7.91-16.15,10.66-2.02.83-4.14,1.26-6.32,1.26h0c-6.95,0-13.28-4.38-15.75-10.91-1.48-3.92-2.92-7.91-4.31-11.76-.68-1.9-1.37-3.8-2.06-5.69-.99,1.6-2.04,3.16-3.14,4.69-3.75,5.19-9.12,11.54-17.51,14.58-3.96,1.43-7.9,2.15-11.7,2.15-6.91,0-13.47-2.35-19.5-6.99-1.75-1.34-3.46-2.75-5.14-4.22-.33.36-.72.66-1.16.88-8.03,4.04-16.56,7.18-25.38,9.32-.31.08-.63.11-.94.11-.78,0-1.55-.23-2.2-.66-2.3,3.45-4.49,6.62-6.67,9.63-1.78,2.45-4.5,3.85-7.46,3.85ZM238.91,170.1c-1.26,8.37-3.37,15.93-6.39,22.87.11-.02.22-.04.33-.06,1.4-.25,2.8-.46,4.16-.67,3.19-.47,6.2-.92,8.9-1.88,4.89-1.74,9.32-4.37,13.56-8.14-1.94.93-4.24,1.58-6.93,1.58h-.3c-.06,0-.12,0-.18,0-4.47-.29-8.06-2.69-10.66-7.15-1.27-2.17-2.04-4.38-2.48-6.54ZM366.81,190.8c2.83-.66,5.53-1.27,8.35-1.68,3.8-.54,7.66-.99,11.38-1.41,3.19-.37,6.47-.74,9.69-1.18.41-4.22.78-8.56.6-12.79-.06-1.42-.41-1.42-.77-1.42-.3,0-.82.06-1.58.35-2.29.88-4.62,1.71-6.87,2.51-4.08,1.45-7.92,2.82-11.67,4.51-1.79.8-3.47,1.2-5.15,1.2s-3.23-.43-4.53-1.04l.55,10.95ZM289.57,181.45c.88,0,1.75.29,2.47.85l1.63,1.28c1.08.85,2.15,1.69,3.23,2.53,7.4-10.69,9.8-21.27,7.36-32.34-.52-2.33-1.51-4.68-2.56-7.17-.24-.58-.49-1.15-.73-1.73-.28-.69-.49-1.18-2.21-1.18-.18,0-.37,0-.57.02-1.74.11-3.48.24-5.21.36-5.5.39-11.18.8-16.83.8h-.26c.64.17,1.23.45,1.74.84,2.4,1.83,2.23,5.25,1.81,6.8-.3,1.08-.61,2.13-.94,3.16.33-.58.66-1.16,1-1.74.33-.57.69-1.02.96-1.34.07-.09.15-.18.22-.27.76-1,1.94-1.58,3.19-1.58.09,0,.18,0,.28,0l1.1.08c1.97.14,3.54,1.69,3.71,3.65.1,1.22.24,2.44.37,3.66.31,2.88.64,5.85.59,8.9v.35c-.07,4.62-.13,9.37-.69,14.09.11,0,.23-.01.34-.01ZM43.17,80.32c-1.44,1.23-2.84,2.53-4.17,3.86-.03.03-.06.06-.09.09-17.38,16.3-22.11,53.69-10.4,80.75.1-.09.2-.18.3-.27,1.59-1.39,3.33-2.83,5.34-4.4,4.52-3.52,7.9-8,10.62-12.48-1.9-.32-4.42-1.56-5.9-5.54-1.59-4.33-2.66-8.15-3.29-11.7-2.46-14.08,1.65-25.27,12.2-33.26,3.76-2.85,7.1-6.28,10.64-9.91.05-.05.1-.11.15-.16-6.23-.2-11.57-2.66-15.4-7ZM104.21,153.54c1.96.6,3.89,1.23,5.79,1.84,1.32.43,2.64.86,3.97,1.28.85.27,2.41.77,3.53,2.14.12.15.25.31.37.49v-.1c-.02-.41-.05-.83-.08-1.26-.13-1.91-.28-4.06.51-6.24.35-.96.81-1.85,1.34-2.69-3.42.96-6.87,2-10.22,3-1.74.52-3.47,1.04-5.21,1.55ZM141.01,144.11c.09,1.56.17,3.11.24,4.66.15,3.03.31,6.14.54,9.2,2.46-3.2,4.93-6.59,7.06-10.15.96-1.6,2.25-3.49,4.01-4.86-3.61.11-7.45.48-11.86,1.15ZM235.35,144.58c.25,0,.51.02.77.07,1.46.28,2.64,1.35,3.06,2.77.14.46.28.85.41,1.2.36.97.76,2.07.73,3.42-.02,1.5-.06,2.97-.13,4.43,1.21-1.42,2.91-2.09,4.54-2.09.5,0,1.01.06,1.53.17,1.13.24,2.28.37,3.4.37,4.99,0,9.67-2.49,13.98-5.18l.12-.08c2.24-1.4,4.55-2.84,6.98-4.12.63-.33,1.34-.58,2.08-.72-12.52-.42-21.68-3.92-28.77-10.99-.96-.96-3.98-4.35-2.16-7.57,1.24-2.19,3.7-3.41,5.59-3.81,1.96-.42,3.94-.75,5.85-1.06,3.09-.51,6-.99,8.76-1.83,4.33-1.31,8.05-3.91,10.84-7.55-6.88-.58-13.64-2.68-20.63-6.39-3.83-2.04-6.32-4.95-7.98-8.14-.43.93-.96,1.77-1.5,2.44-3.01,3.73-6.13,7.46-9.15,11.06-1.34,1.6-2.71,3.24-4.08,4.88.24-.02.48-.02.72-.02,4.53,0,8.21,2.94,9.85,7.88.86,2.59,1.35,5.48,1.4,8.36.12,6.3-3.14,11.01-8.95,12.93-.92.3-1.83.63-2.72.98.23.5.45,1.21.57,2.23.23-.29.48-.59.75-.92.28-.34.61-.74,1-1.22.77-.95,1.92-1.49,3.12-1.49ZM356.84,152.41c1.38,1.11,2.53,1.65,3.51,1.65.69,0,1.44-.25,2.3-.78,1.21-.73,2.44-1.17,3.52-1.55l.69-.25.79-.29c9.19-3.41,18.67-6.92,28.98-7.5-5.93-7.14-12.01-14.46-18.05-21.66-3.22,4.6-6.67,9.46-10.5,14.83l-.73,1.02c-3.42,4.78-6.94,9.71-10.51,14.54ZM195.04,138.81c.29-.62.63-1.16.94-1.6-.16-.06-.32-.13-.47-.21-.16.42-.33.84-.53,1.25-.07.16-.15.31-.23.46.09.03.19.06.28.1ZM70.65,100.94c2.23,0,4.31.67,6.19,1.98,4.47,3.1,6.25,8.51,4.87,14.84-.89,4.18-2.66,8.27-4.97,11.51-.37.52-.75,1.04-1.13,1.56.02-.02.05-.04.07-.06,1.42-1.19,3.56-1.92,5.6-1.92.58,0,1.14.06,1.66.18,2.27.51,4.59.77,6.91.77,5.55,0,11.22-1.4,17.84-4.4.02-.02.03-.04.04-.06-2.72,1.06-4.78,1.71-6.76,1.71-4.95,0-7.15-3.66-10.46-9.21-.65-1.08-1.25-2.18-1.83-3.24-.24-.44-.48-.89-.73-1.33-1.18-2.13-1.36-4.07-.56-5.78,1.23-2.63,4.06-3.17,5.26-3.4,2.64-.5,5.46-1.26,8.4-2.27-.46-.72-.9-1.46-1.35-2.2-.76-1.26-1.47-2.44-2.25-3.51-2.55-3.47-2.18-7.21,1.01-10.26,1.26-1.2,2.66-2.14,4.13-2.78-.37-.64-.68-1.34-.9-2.1-2.44-8.2-6.31-15.64-10.56-23.29-.15.08-.3.15-.46.22,3.34,5.08,3.5,10.5.41,15.42-1.85,2.93-4.16,5.8-7.27,9.04-2.28,2.38-5.05,5.18-7.72,7.9-4.27,4.34-10.01,10.16-11.56,12.08,1.85-.74,3.9-1.4,6.13-1.4ZM116.22,86.2c.12.14.25.27.37.42,1.43,1.69,2.56,3.44,3.36,5.21,2.8-1.47,5.38-2.85,7.89-4.36.02-.03.05-.06.06-.09.19-.87.31-1.82.43-2.83.21-1.77.45-3.77,1.18-5.73.08-.2.16-.4.24-.6-2.88.83-5.71,1.7-8.46,2.69-.34.12-1.06.72-1.4,1.35-.95,1.76-2.17,3.08-3.67,3.95ZM137.38,56.27c-.4.28-.81.56-1.2.86.34-.07.68-.15,1.02-.23.06-.21.12-.42.19-.63ZM429.38,124.41c-3.28,0-6.46-1.33-9.2-3.85-2.83-2.6-5.38-5.38-8.08-8.32-1.13-1.23-2.28-2.48-3.49-3.76-.92-.97-1.29-2.33-.99-3.63.29-1.3,1.22-2.37,2.46-2.85.33-.13.55-.24.69-.33-.04-.14-.12-.35-.25-.62-.44-.88-.87-1.77-1.31-2.65-2.19-4.46-4.25-8.68-6.87-12.51-3.31-4.86-7.08-9.62-10.73-14.22-1.41-1.78-2.82-3.55-4.21-5.34-.81-1.05-3.29-4.24-1.85-7.61.95-2.2,3.13-3.48,6.5-3.81,1.65-.16,3.31-.24,4.94-.24,10.02,0,19.61,2.99,28.5,8.89,14.16,9.39,21.89,23.25,22.36,40.07.27,9.7-6.28,18.29-15.58,20.43-.97.22-1.94.33-2.9.33ZM330.6,117.56c-2.61,0-6.3-.35-8.25-3.41-2.07-3.25-.68-7.28.95-10.79.85-1.84,1.73-3.66,2.61-5.49,2.32-4.83,4.71-9.83,6.56-14.83,1.19-3.21,1.89-6.64,2.65-10.28.4-1.96.82-3.98,1.32-5.98,1.64-6.55,6.93-10.62,13.81-10.62h.14c7.93.06,14.13,5.41,16.99,14.65,3.26,10.54-.77,19.22-5.61,27.04-6.51,10.51-15.35,16.99-26.27,19.27-.54.11-1.27.25-2.06.32-1.06.09-1.98.13-2.83.13h0Z"/>
  </g>
  <path id="Black" class="cls-1" d="M235.35,148.59c-1.07,1.33-1.69,2.02-2.22,2.76-6.59,9.18-13.47,18.06-22.29,25.32-8.08,6.66-17.29,8.41-27.22,6.88-10.16-1.55-19.02-6.6-27.9-11.44-1.1-.59-1.96-1.62-3.59-3,2.03-.46,3.12-.72,4.22-.96,4.78-1.04,9.65-1.81,13.01-6.03,1.78-2.23,2.62-4.65.89-7-2.04-2.78-4.29-5.57-6.97-7.69-4.93-3.88-7.81-2.86-10.99,2.45-2.61,4.35-5.68,8.44-8.81,12.44-.76.98-2.76,1.83-3.81,1.51-.88-.28-1.6-2.31-1.71-3.63-.46-5.39-.65-10.81-.96-16.22-.12-1.99.65-3.39,2.67-3.71,8.65-1.34,17.34-1.95,26.03-.52.9.15,2.27,1.33,2.31,2.09.13,2.42,1.58,2.77,3.41,2.82,2.23.07,4.51.35,6.69.04,12.8-1.86,18.26-11.28,11.39-22.76-1.63-2.72-3.62-5.24-5.54-7.78-2.91-3.86-6.85-5.44-11.54-4.35-8.69,2.01-17.35,4.15-25.97,6.45-4.97,1.33-5.69.94-5.37-4.07.09-1.49.03-3,.28-4.46.49-2.97,6.53-5.63,6.74-5.3s-.24,1.11-.91,2.29-.87,2.91-.24,2.93c1.27.05,7.03-5.71,13.3-3.84,6.27,1.87,6.09-3.17,4.41-7.53-1.13-2.92-3.22-5.46-4.78-8.22-2.56-4.55-5.83-6.93-11.25-4.49-.82.37-3.21-.65-3.19-.84.27-2.32.06-5.72,1.48-6.72,5.73-4.06,9.33-9.62,12.06-15.71,4.21-9.4,7.92-19.03,11.72-28.62,2.11-5.31,2.07-10.63-2.23-14.84-3.77-3.69-7.98-6.97-12.19-10.17-1.76-1.33-3.97-2.03-6.27-.53-.55.36-1.97.31-2.34-.11-2.99-3.51-6.16-1.63-9.31-.49-7.79,2.82-15.46,6.05-23.39,8.4-6.99,2.07-14.2,3.76-21.43,4.54-8.47.91-13.97,9.2-10.29,16.96,1.09,2.29,2.64,4.36,3.82,6.62,6.47,12.43,14.38,24.15,18.43,37.77.76,2.55,2.81,3.59,5.42,3.64,2.44.05,4.18-.77,5.43-3.1.72-1.35,2.15-2.72,3.57-3.23,4.49-1.62,9.11-2.91,13.73-4.17,1.14-.31,2.45-.04,4.24-.04-1.91,2.9-3.76,4.91-4.64,7.27-.94,2.54-.86,5.44-1.47,8.13-.21.94-.96,2.01-1.78,2.5-3.09,1.86-6.3,3.55-9.5,5.22-1.92,1-3.05.43-3.85-1.72-.69-1.85-1.84-3.61-3.13-5.13-3.43-4.07-8.45-4.14-12.31-.46-1.65,1.58-1.99,3.04-.55,5,1.44,1.96,2.59,4.14,3.92,6.19,1.69,2.62.94,4.56-1.81,5.52-3.05,1.07-6.2,1.97-9.38,2.57-2.25.43-3.18,1.1-1.96,3.31.83,1.49,1.62,3,2.5,4.46,5.16,8.63,5.38,8.65,14.85,4.81.44-.18,2.24-1.16,2.24-1.16,0,0,.58.93.81,2.02.24,1.1.76,6.1-2.51,7.58-8.72,3.95-17.66,6.05-27.28,3.89-1.16-.26-2.89.14-3.8.9-3.98,3.35-7.96,6.75-11.55,10.5-4.26,4.46-8.06,9.34-12.18,13.93-1.05,1.18-2.53,1.97-3.81,2.94-.37-.35-.74-.7-1.11-1.05,1.64-2.78,3.03-5.74,4.95-8.31,6.24-8.35,12.85-16.43,18.93-24.9,2.08-2.91,3.57-6.52,4.32-10.03.84-3.87.41-8.17-3.25-10.71-3.89-2.71-7.69-.42-11.47,1.06-1.8.71-3.87.73-5.82,1.07.52-2.05,1.97-5.31,3.64-7.82s13.01-13.63,20.01-20.92c2.49-2.59,4.86-5.37,6.77-8.4,2.6-4.14,1.91-8.22-1.1-12.12-5.57-7.23-13.32-10.88-21.52-14.22-7.39-3.01-16.24-3.12-21.94-10.94-.93,1.82-1.81,3.11-2.28,4.54-3.77,11.56-2.62,22.91,2.04,33.92,3.47,8.18,10.8,11.94,19.67,10.74,1.03-.14,2.16.35,3.24.56-.4,1.11-.49,2.54-1.25,3.29-4.67,4.66-9.12,9.65-14.34,13.61-10.07,7.63-12.73,17.62-10.68,29.38.66,3.74,1.79,7.43,3.1,11,1.21,3.26,3.17,3.73,6.31,2.16.78-.38,1.64-.59,2.91-1.03-.21,1.11-.19,1.65-.41,2.07-3.81,7.31-8.19,14.19-14.81,19.35-1.76,1.38-3.49,2.79-5.17,4.26-6.46,5.66-10.86,12.57-10.36,21.36.52,9.12,3.54,17.75,8.08,25.65,3.03,5.25,8.46,6.9,13.8,4.77,4.32-1.72,7.69-4.66,9.13-9.23,1.08-3.43,1.65-7.01,2.68-10.46,4.63-15.44,11.24-30.06,18.65-44.33,2.01-3.86,4.2-7.64,6.38-11.42,1.26-2.19,2.79-1.98,4.3-.21.55.64,1.02,1.36,1.52,2.05,3.86,5.4,7.37,6.67,13.82,4.82,6.95-1.99,13.84-4.18,20.82-6.1,3.04-.83,6.21-1.2,9.32-1.79.17.41.35.82.53,1.22-1.43,1.14-3.04,2.1-4.24,3.44-1.49,1.66-3.08,3.47-3.82,5.51-.65,1.79-.27,3.99-.2,6.01.34,10.51.66,21.02,1.12,31.52.18,4-.56,5.49-4.74,4.52-3.24-.75-6.74-.36-10.12-.49-.91-.04-1.82-.15-2.73-.23.1-1-.12-2.21.36-2.98,2.97-4.89,5.65-10.06,9.32-14.37,2.96-3.48,1.71-12.8-.66-15.68-.37-.45-1.06-.68-1.65-.87-5.26-1.66-10.48-3.49-15.82-4.82-1.69-.41-4.6-.09-5.43,1.02-3.53,4.75-6.64,9.83-9.58,14.98-1.26,2.21-.25,4.25,2.4,4.83,2.69.58,5.46.81,8.18,1.33,1.97.38,3.9.97,5.85,1.47-1.28,1.73-2.34,3.69-3.86,5.17-7.99,7.75-16.35,14.96-27.57,17.72-.58.14-1.47,1.03-1.39,1.39.15.72.75,1.5,1.39,1.95,6.4,4.6,13.54,6.96,21.45,7.04,2.62.03,4.99-.06,6.95-2.28.7-.78,2.34-1.15,3.48-1.04,7.01.72,12.83,3.76,16.68,9.78,1.77,2.76,2.92,5.91,4.45,8.82,2.5,4.74,8.03,6.07,10.78,2.28,4.86-6.71,9.39-13.67,13.76-20.7.96-1.54,1.08-3.89.88-5.79-.31-2.94-1.24-5.81-1.88-8.72-1.19-5.4-2.42-10.79-3.49-16.21-.18-.9.38-1.95.59-2.93.96.47,2.2.69,2.85,1.43,5.25,5.99,10.61,11.91,15.53,18.18,5.56,7.08,11.84,13.4,18.93,18.85,8.24,6.34,17.42,7.84,27.39,4.25,6.88-2.49,11.56-7.52,15.63-13.16,11.49-15.9,15.13-34.16,15.41-53.34.02-.91-.5-1.82-.97-3.38ZM114.85,46.48c-4.04,2.19-4.33,2.09-6.1-1.96-3.48-7.97-2.89-7.38,4.68-8.68,7.84-1.34,15.75-2.35,23.62-3.55,1.36-.2,2.7-.57,4.03-.93,3.12-.83,4.47-.02,4.22,3.08-.31,3.96-1.06,7.88-1.71,12.49-2.72-2.85-4.69-5.05-6.82-7.09-2.23-2.14-4.86-2.59-7.64-1.11-4.78,2.55-9.52,5.17-14.28,7.75ZM117.49,65.52c-.25.29-2.13-.27-2.12-.4.04-1.69-.34-4.11.61-4.92,2.57-2.22,5.73-3.76,8.65-5.57.32.33.63.65.95.98-2.68,3.32-5.31,6.68-8.09,9.91ZM125.75,63.35c-.35.07-.76-.17-2.06-.5,5.97-5.86,11.59-10.97,18.82-13.92.28.19.56.37.84.56-.87,3.22-1.65,6.46-2.65,9.64-.21.65-1.16,1.34-1.88,1.51-4.33.99-8.7,1.85-13.07,2.71ZM130.59,116.18c-.42,4.03-5.08,8.09-9.1,7.63-.44-.05-1-.41-1.23-.79-.94-.64,0-4.22.34-8.19.44-.31,2.67-1.64,3.15-1.84,1.5-1.03,6.84-3.66,6.84-3.66,0,0,.33,4.45,0,6.85ZM289.57,185.45c1.9,1.48,3.78,2.98,5.69,4.45,1.63,1.26,3,1.21,4.3-.61,7.85-10.96,11.58-22.92,8.61-36.38-.73-3.29-2.2-6.42-3.49-9.56-1.22-2.96-3.6-3.83-6.73-3.63-8.05.52-16.12,1.3-24.17,1.12-9.94-.22-19.46-2.44-26.89-9.85-.75-.75-1.78-2.27-1.5-2.77.51-.9,1.84-1.63,2.95-1.87,4.96-1.06,10.1-1.51,14.93-2.98,5.71-1.72,10.45-5.28,13.83-10.29.73-1.09.96-2.79.75-4.11-.08-.47-2.12-.81-3.29-.88-7.27-.4-14.01-2.66-20.34-6.03-6.03-3.21-8-9.27-9.05-15.41-.66-3.91-.44-8.06,0-12.04.21-1.91,1.58-3.87,2.89-5.42,1.64-1.96,3.8-1.72,5.62,0,1.15,1.09,2.25,2.29,3.14,3.6,4.95,7.26,11.79,12.51,18.65,17.74,5.02,3.83,10.85,5.91,16.9,7.17,5.69,1.18,7.85,4.62,5,9.69-3.99,7.11-8.94,13.49-16.2,17.66-1.94,1.11-3.91,2.16-5.81,3.33-.92.57-1.69,1.37-2.41,2.57,3.76,1.13,7.57,1.46,11.11.3,5.62-1.84,11.08-4.19,16.53-6.51,3.72-1.58,5.91-1.66,8.66,1.28,2.51,2.69,4.57,5.83,6.63,8.9,1.25,1.86,2.32,3.31,4.82,1.86.63-.37,1.69-.31,2.45-.1,6.83,1.95,12.62-.28,17.73-4.61,15.02-12.71,25.96-28.31,32.69-46.82.95-2.61,1.55-5.5,5.15-5.63,4.62-.17,7.76,1.84,9.26,5.85,1.87,4.97,1.14,9.96-.57,14.69-1.08,2.97-.25,4.59,1.78,6.63,13.89,13.94,30.79,23.31,48.14,32.01,5.76,2.89,11.92,2.91,18.11,2.18,3.78-.44,4.05-.07,2.88,3.65-2.59,8.26-7.15,15.14-13.77,20.69-5.62,4.71-12.3,4.81-18.05.25-1.04-.83-2.18-1.52-3.33-2.32-.39.55-.77.87-.71,1.02,1.63,4.4-.4,8.55-.75,12.82-.66,8.15-.96,16.33-1.38,24.5-.14,2.65.08,5.35-.31,7.96-.73,4.9-4.41,7.41-9.21,6.33-4.65-1.05-9.19-3.07-13.87-3.44-11.1-.89-22.28-1.82-33.23,1.56-1.33.41-3.36.75-4.23.07-2.58-2.03-4.08-.9-5.98.9-1.28,1.21-3.06,1.9-4.62,2.82-.55-1.82-1.35-3.61-1.62-5.48-1.04-7.24-1.63-14.56-2.94-21.75-1.06-5.83-3.08-11.49-4.28-17.3-.38-1.86.43-4,.86-5.98.2-.94.78-1.79,1.18-2.69-.21-.2-.42-.41-.63-.61-.89.41-1.75.88-2.67,1.21-2.97,1.06-5.9,2.4-8.97,2.98-2.19.41-3.12,1.22-3.5,3.31-1.17,6.47-2.19,12.98-3.77,19.35-2.97,11.99-8.15,22.8-17.9,30.93-2.62,2.18-5.47,3-8.57,1.65-3.02-1.32-3.8-4.21-3.76-7.2.13-9.11-.98-18.02-3.55-26.77-.33-1.11-.04-2.4-.04-3.61.29-.13.58-.26.87-.39ZM404.04,147.08c-.45-.91-.59-1.43-.91-1.81-7.46-8.98-14.91-17.97-22.42-26.9-1.92-2.28-2.99-2.1-4.67.32-3.71,5.3-7.46,10.59-11.22,15.85-3.83,5.35-7.64,10.71-11.56,15.99-1.48,1.99-1.08,3.2.78,4.76,3.36,2.81,6.7,3.84,10.69,1.42,1.07-.65,2.33-1.03,3.52-1.47,10.76-3.98,21.49-8.09,33.27-7.58.68.03,1.38-.3,2.53-.57ZM363.05,195.76c4.5-.97,8.55-2.08,12.67-2.67,7.24-1.04,14.54-1.68,21.79-2.69.98-.14,2.49-1.37,2.58-2.21.48-4.85.95-9.75.74-14.61-.2-4.63-3.52-6.27-7.78-4.63-6.24,2.4-12.67,4.37-18.75,7.11-3.84,1.73-6.45.62-9.19-1.77-.86-.75-1.95-1.25-3.23-2.05.42,8.39.81,16.15,1.18,23.52ZM220.68,124.16c1.8-1.03,3.57-2.09,5.39-3.09,4.63-2.54,8.65-1.12,10.32,3.91.76,2.28,1.15,4.77,1.2,7.17.08,4.36-1.98,7.66-6.2,9.06-7.91,2.61-14.79,6.83-20.99,12.37-3.57,3.2-7.32,2.53-9.4-1.78-1.41-2.9-2.14-6.19-2.73-9.39-.2-1.08.7-2.64,1.54-3.58,5.57-6.27,11.44-12.28,16.84-18.69,3.82-4.54,7.17-9.49,10.52-14.4,1.69-2.49.59-4.31-2.44-4.35-7.65-.1-15.31-.25-22.96-.08-5.74.13-9.87-2.02-12.31-7.25-2.35-5.04-1.53-9.5,1.88-13.94,4.59-5.98,8.73-12.31,13.09-18.47.63-.88,1.42-1.65,2.14-2.47.33.13.67.25,1,.38-.25,1.44-.42,2.91-.77,4.33-2.37,9.73-1.7,8.89,7.05,11.29,6.32,1.73,12.83,2.73,19.18,4.35,1.46.37,3.1,1.72,3.8,3.07,1.75,3.37,3.23,6.93,4.31,10.57.35,1.19-.51,3.14-1.41,4.26-5.4,6.7-11.02,13.22-16.47,19.89-1.46,1.78-2.55,3.86-3.82,5.8.41.36.83.71,1.24,1.07ZM284.97,154.8c.34,4.06,1,8.12.95,12.17-.08,5.84-.14,11.76-1.17,17.48-2.19,12.14-7.08,23.09-15.76,32.19-4.22,4.43-9.27,7.44-14.79,9.73-6.63,2.74-14.26-.65-16.79-7.37-2.25-5.96-4.36-11.98-6.55-17.97-.96-2.62.26-3.75,2.72-4.19,4.58-.83,9.35-1.17,13.69-2.72,11.49-4.08,19.61-12.54,26.38-22.26,3.5-5.03,6.23-10.6,9.32-15.92.25-.43.6-.81.91-1.21.37.03.73.05,1.1.08ZM411.52,105.74c3.8-1.46,3.81-3.99,2.58-6.46-2.64-5.31-5.13-10.76-8.45-15.64-4.66-6.84-10-13.22-15.08-19.76-2.36-3.04-1.9-4.61,1.89-4.98,11.23-1.1,21.62,1.89,30.84,8,13.04,8.65,20.13,21.1,20.57,36.85.23,8.14-5.3,14.77-12.48,16.42-3.43.79-6.27-.51-8.5-2.56-3.88-3.56-7.32-7.6-11.37-11.88ZM350.36,60.15c6.34.05,10.94,4.51,13.2,11.84,2.79,9.02-.73,16.55-5.19,23.75-5.51,8.89-13.13,15.26-23.69,17.46-.52.11-1.05.2-1.57.25-7.97.65-9.44-1.38-6.18-8.4,3.18-6.84,6.68-13.56,9.29-20.61,1.97-5.34,2.71-11.12,4.1-16.68,1.21-4.83,5.01-7.63,10.04-7.59ZM252.31,179.8c-3.48-.22-5.77-2.27-7.46-5.18-2.47-4.24-2.72-8.87-2.3-13.59.15-1.63.9-2.99,2.87-2.56,7.7,1.66,14.11-1.44,20.34-5.33,2.25-1.41,4.5-2.82,6.85-4.05.74-.39,2.07-.59,2.6-.19.5.38.59,1.75.37,2.56-2.47,9.05-6.38,17.33-13.31,23.9-2.77,2.63-5.89,4.53-9.96,4.45Z"/>
  <path id="Red" class="cls-2" d="M113.94,38.8c4.04-.69,8.18-1.31,12.24-1.89-2.58,1.38-5.17,2.79-7.68,4.17-1.69.92-3.38,1.84-5.08,2.76-.31.17-.87.47-1.36.72-.21-.45-.43-.95-.56-1.24-.48-1.1-1.2-2.75-1.57-3.83.67-.14,1.58-.29,2.41-.43.49-.08,1.03-.17,1.6-.26ZM141.85,34.26l-.14.04c-1.35.36-2.74.74-4.22.96-.62.09-1.23.18-1.85.28,1.14.47,2.22,1.19,3.21,2.14.91.87,1.79,1.76,2.7,2.72.32-2.14.6-4.19.76-6.19v-.06c-.13.03-.28.06-.46.11ZM83.53,43.91c-.46-.89-1.01-1.77-1.59-2.72-.79-1.26-1.6-2.57-2.29-4.04-2.2-4.63-2.05-9.82.42-14.22,1.09-1.95,2.57-3.63,4.33-4.97-12.9,3.48-24.84,9.09-35.36,16.42,2.97,2.37,6.63,3.4,10.7,4.55,2.25.64,4.57,1.29,6.83,2.22,7.51,3.05,15.29,6.6,21.34,13.28.42-.08.84-.17,1.25-.24-.03-.05-.05-.09-.08-.14-1.85-3.3-3.76-6.71-5.55-10.14ZM221.01,105.34c-3.89-.06-7.91-.11-11.85-.11-2.66,0-5.05.02-7.32.07-.19.01-.38.01-.57.01-7.29,0-12.49-3.22-15.45-9.57-2.9-6.2-2.11-12.28,2.33-18.06,3-3.93,5.89-8.11,8.68-12.15,1.41-2.04,2.86-4.14,4.32-6.2.58-.82,1.21-1.5,1.77-2.11.21-.22-16.5-19.8-27.64-26.59-.22.83-.51,1.67-.85,2.52-.58,1.46-1.15,2.91-1.73,4.37-3.17,8.04-6.45,16.36-10.06,24.42-2.17,4.83-4.61,8.77-7.49,12.02,1.62,2.26,2.99,4.6,4.12,7.01,2.21,1.77,3.51,4.06,4.1,5.12.5.88,1.07,1.76,1.68,2.69,1.22,1.86,2.47,3.79,3.35,6.06,1.19,3.07,2.14,7.39,0,10.53-.46.67-1.03,1.23-1.68,1.67,1.59-.38,3.2-.75,4.8-1.13,1.26-.29,2.52-.44,3.73-.44,4.7,0,8.82,2.17,11.91,6.28l.82,1.07c1.7,2.24,3.45,4.54,4.96,7.07,2.48,4.13,3.67,8.28,3.54,12.14-.06,1.74,2.23,2.02,3.19.97,1.3-1.43,2.61-2.84,3.89-4.23,3.35-3.64,6.82-7.4,10.03-11.21,3.2-3.81,6.15-8.04,8.99-12.2l-1.56-.02ZM35.04,45.94C15.82,64.72,4,90.25,4,118.36c0,20.4,6.23,39.45,16.99,55.53,1.21-2.02,2.7-3.98,4.47-5.89-13.41-29.28-7.81-69.28,10.72-86.65,1.47-1.47,3.02-2.9,4.63-4.27-.6-.98-1.14-2.04-1.61-3.15-4.01-9.47-5.4-18.85-4.16-27.99ZM191.87,142.64c-3.11,3.12-7.63,5.2-13.2,6.02-.86.12-1.79.18-2.83.18s-1.95-.05-2.88-.1c-.56-.03-1.11-.06-1.65-.08-.4-.01-.78-.04-1.13-.08,1.22,1.4,2.31,2.83,3.29,4.17,1.52,2.06,3.42,6.35-.98,11.86-2.99,3.76-6.78,5.36-10.51,6.36,7.3,3.94,14.37,7.42,22.25,8.63,2.02.31,4,.47,5.87.47,6.95,0,12.9-2.12,18.2-6.49.74-.61,1.47-1.23,2.18-1.87,1.11-1.75,3.83-4.13,6.68-6.61,3.07-3.35,6-7,9-11,.45-2.78.72-6.97-.36-6.69-1.48.38-5.21,3.38-5.21,3.38,0,0-5.09,3.59-7.53,5.77-2.21,1.98-4.67,3.02-7.11,3.02-3.59,0-6.7-2.2-8.56-6.03-1.62-3.34-2.43-6.98-3.06-10.41-.12-.63-1.92-1.04-2.46-.5ZM155.81,197.84c-3.26-4.16-6.79-8.24-10.28-12.21.37,1.72.75,3.44,1.13,5.13.24,1.09.49,2.19.73,3.28.19.87.41,1.74.64,2.66.53,2.08,1.07,4.22,1.31,6.5.2,1.91.28,5.53-1.46,8.32-1.76,2.83-3.44,5.47-5.05,7.96,8.62-2.09,16.84-5.13,24.52-9-4.1-3.85-7.96-8.08-11.54-12.64ZM98.4,213.21c-.13,0-.27.02-.39.05-3.16,3.29-7.11,3.29-9.04,3.29h-.63c-1.37-.01-2.72-.09-4.06-.23-1.81-.19-8.58-1.36-8.84-1.04s6.37,2.76,8.3,3.29c9.31,2.57,19.13,4.02,29.29,4.19-.28-.55-.58-1.08-.91-1.59-3.02-4.72-7.5-7.32-13.72-7.96ZM118.53,179.32c-.16.13-.32.25-.48.38-2.56,3.02-4.62,6.54-6.8,10.26-.13.22-.26.44-.39.66h.42c.5,0,.99-.01,1.48-.01,1.97,0,4.08.07,6.24.55,0-.13-.01-.27-.02-.41-.17-3.79-.31-7.62-.45-11.43Z"/>
</svg>